<?xml version="1.0" encoding="UTF-8"?>
<svg xmlns="http://www.w3.org/2000/svg" xmlns:xlink="http://www.w3.org/1999/xlink" width="70px" height="70px" viewBox="0 0 70 70" version="1.1">
<g id="surface1">
<path style=" stroke:none;fill-rule:nonzero;fill:rgb(100%,86.27451%,39.215686%);fill-opacity:1;" d="M 50.578125 10.992188 C 48.910156 13.214844 46.355469 14.492188 43.578125 14.492188 C 41.511719 14.492188 39.648438 13.726562 38.113281 12.570312 C 36.96875 11.710938 35.921875 10.347656 35.464844 9.023438 C 35.109375 7.988281 34.828125 6.902344 34.828125 5.742188 C 32.269531 5.742188 30.457031 8.332031 31.425781 10.699219 C 33.382812 15.488281 38.09375 18.867188 43.578125 18.867188 C 47.742188 18.867188 51.566406 16.957031 54.074219 13.625 C 54.074219 13.621094 54.074219 13.617188 54.070312 13.613281 Z M 50.578125 10.992188 "/>
<path style=" stroke:none;fill-rule:nonzero;fill:rgb(100%,86.27451%,39.215686%);fill-opacity:1;" d="M 42.453125 8.886719 L 39.171875 5.605469 L 42.453125 2.324219 L 45.734375 5.605469 Z M 42.453125 8.886719 "/>
<path style=" stroke:none;fill-rule:nonzero;fill:rgb(100%,86.27451%,39.215686%);fill-opacity:1;" d="M 53.570312 21.144531 C 46.738281 21.144531 40.796875 26.453125 38.785156 34.355469 C 38.28125 36.335938 36.519531 37.722656 34.5 37.722656 L 31.238281 37.722656 C 29.820312 37.722656 28.421875 37.375 27.171875 36.710938 L 26.863281 36.546875 C 30.96875 34.160156 33.675781 30.128906 33.675781 25.5625 C 33.675781 18.25 26.730469 12.300781 18.199219 12.300781 C 11.6875 12.300781 6.117188 15.769531 3.839844 20.664062 C 3.417969 21.574219 3.65625 22.65625 4.429688 23.300781 L 7.148438 25.5625 C 7.148438 20.6875 12.105469 16.722656 18.199219 16.722656 C 24.292969 16.722656 29.253906 20.6875 29.253906 25.5625 C 29.253906 30.441406 24.292969 34.40625 18.199219 34.40625 L 15.988281 34.40625 L 17.621094 37.667969 C 17.964844 38.359375 18.644531 38.8125 19.410156 38.878906 C 26.160156 39.441406 31.464844 44.65625 31.464844 50.984375 C 31.464844 57.691406 25.511719 63.144531 18.199219 63.144531 C 10.886719 63.144531 4.9375 57.691406 4.9375 50.984375 C 2.328125 50.984375 0.507812 53.558594 1.351562 56.027344 C 3.632812 62.710938 10.324219 67.566406 18.199219 67.566406 C 27.949219 67.566406 35.886719 60.128906 35.886719 50.984375 C 35.886719 47.734375 34.867188 44.707031 33.132812 42.144531 L 34.5 42.144531 C 38.542969 42.144531 42.066406 39.386719 43.070312 35.445312 C 44.574219 29.535156 48.796875 25.5625 53.570312 25.5625 C 55.582031 25.5625 57.371094 26.207031 59.097656 27.492188 C 60.339844 28.417969 61.667969 30.058594 62.277344 31.089844 C 63.703125 33.507812 64.621094 36.601562 64.621094 39.933594 C 64.621094 47.855469 59.664062 54.300781 53.570312 54.300781 C 49.84375 54.300781 46.386719 51.863281 44.320312 47.78125 C 42.011719 48.945312 41.457031 51.996094 43.195312 53.90625 C 45.996094 56.980469 49.652344 58.722656 53.570312 58.722656 C 62.101562 58.722656 69.042969 50.292969 69.042969 39.933594 C 69.042969 29.570312 62.101562 21.144531 53.570312 21.144531 Z M 53.570312 21.144531 "/>
<path style=" stroke:none;fill-rule:nonzero;fill:rgb(0%,0%,0%);fill-opacity:1;" d="M 43.535156 19.988281 C 48.074219 19.988281 52.246094 17.902344 54.972656 14.269531 C 55.3125 13.816406 55.222656 13.175781 54.769531 12.835938 L 51.234375 10.175781 C 51.015625 10.015625 50.742188 9.945312 50.472656 9.980469 C 50.203125 10.019531 49.960938 10.164062 49.796875 10.382812 C 48.300781 12.371094 46.019531 13.511719 43.535156 13.511719 C 41.742188 13.511719 40.050781 12.917969 38.652344 11.796875 C 38.210938 11.441406 37.5625 11.511719 37.210938 11.953125 C 36.855469 12.394531 36.925781 13.042969 37.367188 13.394531 C 39.113281 14.792969 41.300781 15.5625 43.535156 15.5625 C 46.328125 15.5625 48.914062 14.421875 50.78125 12.402344 L 52.683594 13.832031 C 50.363281 16.453125 47.082031 17.9375 43.535156 17.9375 C 38.542969 17.9375 34.089844 14.945312 32.195312 10.3125 C 31.867188 9.515625 31.960938 8.640625 32.449219 7.914062 C 32.769531 7.4375 33.21875 7.085938 33.734375 6.890625 C 33.839844 7.75 34.054688 8.585938 34.382812 9.390625 C 34.59375 9.917969 35.191406 10.167969 35.71875 9.957031 C 36.242188 9.742188 36.496094 9.144531 36.28125 8.621094 C 35.90625 7.6875 35.714844 6.703125 35.714844 5.691406 C 35.714844 5.125 35.253906 4.664062 34.6875 4.664062 C 33.105469 4.664062 31.632812 5.453125 30.75 6.769531 C 29.886719 8.054688 29.714844 9.671875 30.296875 11.089844 C 32.507812 16.496094 37.707031 19.988281 43.535156 19.988281 Z M 43.535156 19.988281 "/>
<path style=" stroke:none;fill-rule:nonzero;fill:rgb(0%,0%,0%);fill-opacity:1;" d="M 41.707031 9.734375 C 41.90625 9.933594 42.167969 10.035156 42.429688 10.035156 C 42.691406 10.035156 42.953125 9.933594 43.15625 9.734375 L 46.472656 6.414062 C 46.875 6.015625 46.875 5.363281 46.472656 4.964844 L 43.15625 1.648438 C 42.964844 1.453125 42.703125 1.347656 42.429688 1.347656 C 42.160156 1.347656 41.898438 1.453125 41.707031 1.648438 L 38.386719 4.964844 C 38.195312 5.15625 38.085938 5.417969 38.085938 5.691406 C 38.085938 5.960938 38.195312 6.222656 38.386719 6.414062 Z M 42.429688 3.820312 L 44.296875 5.691406 L 42.429688 7.558594 L 40.5625 5.691406 Z M 42.429688 3.820312 "/>
<path style=" stroke:none;fill-rule:nonzero;fill:rgb(0%,0%,0%);fill-opacity:1;" d="M 53.492188 20.148438 C 46.179688 20.148438 39.835938 25.773438 37.703125 34.140625 C 37.3125 35.671875 35.957031 36.738281 34.40625 36.738281 L 31.144531 36.738281 C 30.382812 36.738281 29.628906 36.625 28.902344 36.402344 C 32.507812 33.703125 34.605469 29.777344 34.605469 25.597656 C 34.605469 17.714844 27.199219 11.300781 18.097656 11.300781 C 14.746094 11.300781 11.515625 12.171875 8.761719 13.816406 C 6.050781 15.4375 3.972656 17.691406 2.761719 20.339844 C 2.171875 21.632812 2.539062 23.1875 3.660156 24.121094 L 6.378906 26.386719 C 6.6875 26.640625 7.109375 26.695312 7.472656 26.527344 C 7.832031 26.359375 8.0625 25.996094 8.0625 25.597656 C 8.0625 21.285156 12.5625 17.773438 18.097656 17.773438 C 23.628906 17.773438 28.132812 21.285156 28.132812 25.597656 C 28.132812 29.910156 23.628906 33.421875 18.097656 33.421875 L 15.886719 33.421875 C 15.53125 33.421875 15.199219 33.605469 15.011719 33.90625 C 14.824219 34.210938 14.808594 34.585938 14.96875 34.90625 L 16.601562 38.171875 C 17.101562 39.171875 18.101562 39.851562 19.207031 39.941406 C 22.25 40.191406 25.070312 41.46875 27.140625 43.535156 C 29.207031 45.59375 30.34375 48.257812 30.34375 51.039062 C 30.34375 57.179688 24.851562 62.179688 18.097656 62.179688 C 11.34375 62.179688 5.851562 57.179688 5.851562 51.039062 C 5.851562 50.472656 5.390625 50.011719 4.824219 50.011719 C 3.25 50.011719 1.824219 50.746094 0.910156 52.023438 C -0.0117188 53.3125 -0.246094 54.914062 0.265625 56.414062 C 1.453125 59.894531 3.839844 63.019531 6.980469 65.207031 C 10.222656 67.460938 14.066406 68.652344 18.097656 68.652344 C 28.421875 68.652344 36.820312 60.75 36.820312 51.039062 C 36.820312 48.3125 36.140625 45.640625 34.847656 43.203125 C 39.175781 43.011719 42.894531 39.996094 43.976562 35.738281 C 45.367188 30.285156 49.1875 26.625 53.492188 26.625 C 55.210938 26.625 56.90625 27.21875 58.402344 28.347656 C 58.855469 28.6875 59.5 28.597656 59.839844 28.144531 C 60.179688 27.691406 60.089844 27.050781 59.636719 26.710938 C 57.785156 25.3125 55.65625 24.574219 53.492188 24.574219 C 48.234375 24.574219 43.613281 28.855469 41.992188 35.234375 C 41.101562 38.726562 37.984375 41.164062 34.40625 41.164062 L 33.039062 41.164062 C 32.660156 41.164062 32.3125 41.375 32.136719 41.707031 C 31.957031 42.042969 31.980469 42.449219 32.191406 42.765625 C 33.878906 45.257812 34.769531 48.117188 34.769531 51.039062 C 34.769531 59.621094 27.289062 66.601562 18.097656 66.601562 C 14.484375 66.601562 11.046875 65.539062 8.152344 63.523438 C 5.367188 61.582031 3.253906 58.824219 2.207031 55.753906 C 1.910156 54.886719 2.046875 53.960938 2.578125 53.21875 C 2.90625 52.757812 3.351562 52.421875 3.859375 52.234375 C 4.515625 58.949219 10.648438 64.230469 18.097656 64.230469 C 25.980469 64.230469 32.394531 58.3125 32.394531 51.039062 C 32.394531 47.710938 31.042969 44.53125 28.589844 42.085938 C 26.171875 39.675781 22.902344 38.1875 19.378906 37.898438 C 18.976562 37.867188 18.617188 37.617188 18.433594 37.253906 L 17.542969 35.472656 L 18.097656 35.472656 C 24.761719 35.472656 30.183594 31.042969 30.183594 25.597656 C 30.183594 20.15625 24.761719 15.726562 18.097656 15.726562 C 12.265625 15.726562 7.382812 19.117188 6.257812 23.613281 L 4.972656 22.546875 C 4.5625 22.203125 4.421875 21.644531 4.628906 21.191406 C 5.664062 18.925781 7.457031 16.984375 9.8125 15.578125 C 12.25 14.121094 15.113281 13.351562 18.097656 13.351562 C 26.070312 13.351562 32.554688 18.847656 32.554688 25.597656 C 32.554688 29.632812 30.199219 33.410156 26.25 35.703125 C 25.929688 35.890625 25.734375 36.238281 25.742188 36.609375 C 25.75 36.984375 25.957031 37.320312 26.285156 37.496094 L 26.59375 37.660156 C 27.988281 38.398438 29.5625 38.792969 31.144531 38.792969 L 34.40625 38.792969 C 36.898438 38.792969 39.070312 37.085938 39.691406 34.648438 C 41.585938 27.203125 47.132812 22.199219 53.492188 22.199219 C 61.464844 22.199219 67.949219 30.175781 67.949219 39.976562 C 67.949219 49.78125 61.464844 57.753906 53.492188 57.753906 C 49.917969 57.753906 46.5 56.164062 43.867188 53.269531 C 43.253906 52.597656 42.996094 51.695312 43.164062 50.796875 C 43.265625 50.238281 43.523438 49.738281 43.898438 49.339844 C 46.183594 53.144531 49.703125 55.382812 53.492188 55.382812 C 60.15625 55.382812 65.578125 48.472656 65.578125 39.976562 C 65.578125 36.554688 64.714844 33.3125 63.082031 30.601562 C 62.789062 30.117188 62.160156 29.960938 61.675781 30.25 C 61.191406 30.542969 61.03125 31.171875 61.324219 31.660156 C 62.765625 34.050781 63.527344 36.925781 63.527344 39.976562 C 63.527344 47.339844 59.023438 53.332031 53.492188 53.332031 C 50.15625 53.332031 47.039062 51.101562 45.152344 47.367188 C 44.894531 46.863281 44.277344 46.660156 43.773438 46.914062 C 42.386719 47.613281 41.429688 48.894531 41.144531 50.425781 C 40.863281 51.957031 41.304688 53.5 42.351562 54.652344 C 45.375 57.976562 49.332031 59.804688 53.492188 59.804688 C 62.59375 59.804688 70 50.910156 70 39.976562 C 70 29.042969 62.59375 20.148438 53.492188 20.148438 Z M 53.492188 20.148438 "/>
</g>
</svg>
